<svg xmlns="http://www.w3.org/2000/svg" xmlns:xlink="http://www.w3.org/1999/xlink" width="500" zoomAndPan="magnify" viewBox="0 0 375 374.999991" height="500" preserveAspectRatio="xMidYMid meet" version="1.0"><defs><g/><clipPath id="4f33aa51cd"><path d="M 0.925781 1.148438 L 374.777344 1.148438 L 374.777344 375 L 0.925781 375 Z M 0.925781 1.148438 " clip-rule="nonzero"/></clipPath><clipPath id="46999e7ce1"><path d="M 187.851562 1.148438 C 84.613281 1.148438 0.925781 84.839844 0.925781 188.074219 C 0.925781 291.3125 84.613281 375 187.851562 375 C 291.085938 375 374.777344 291.3125 374.777344 188.074219 C 374.777344 84.839844 291.085938 1.148438 187.851562 1.148438 Z M 187.851562 1.148438 " clip-rule="nonzero"/></clipPath></defs><g clip-path="url(#4f33aa51cd)"><g clip-path="url(#46999e7ce1)"><path fill="#000000" d="M 0.925781 1.148438 L 374.777344 1.148438 L 374.777344 375 L 0.925781 375 Z M 0.925781 1.148438 " fill-opacity="1" fill-rule="nonzero"/></g></g><g fill="#ffffff" fill-opacity="1"><g transform="translate(140.663797, 281.989169)"><g><path d="M 228.0625 -100.4375 C 228.0625 -67.625 219.238281 -42.015625 201.59375 -23.609375 C 183.945312 -5.203125 159.003906 4 126.765625 4 C 105.015625 4 85.410156 -0.578125 67.953125 -9.734375 C 50.503906 -18.890625 36.960938 -31.382812 27.328125 -47.21875 C 17.691406 -63.050781 12.875 -80.742188 12.875 -100.296875 C 12.875 -119.847656 17.644531 -137.539062 27.1875 -153.375 C 36.726562 -169.207031 49.890625 -181.65625 66.671875 -190.71875 C 83.460938 -199.78125 102.160156 -204.3125 122.765625 -204.3125 C 135.734375 -204.3125 148.941406 -202.546875 162.390625 -199.015625 C 175.835938 -195.492188 187.046875 -190.773438 196.015625 -184.859375 L 201.734375 -144.515625 L 199.171875 -144.515625 C 195.160156 -160.535156 185.90625 -173.078125 171.40625 -182.140625 C 156.90625 -191.203125 140.785156 -195.734375 123.046875 -195.734375 C 97.671875 -195.734375 76.539062 -186.71875 59.65625 -168.6875 C 42.78125 -150.65625 34.34375 -128 34.34375 -100.71875 C 34.34375 -73.445312 43.066406 -50.601562 60.515625 -32.1875 C 77.972656 -13.78125 100.816406 -4.578125 129.046875 -4.578125 C 157.285156 -4.578125 180.320312 -13.734375 198.15625 -32.046875 C 216 -50.359375 224.921875 -75.445312 224.921875 -107.3125 L 227.78125 -107.3125 C 227.96875 -105.019531 228.0625 -102.726562 228.0625 -100.4375 Z M 228.0625 -100.4375 "/></g></g></g><g fill="#ffffff" fill-opacity="1"><g transform="translate(83.923713, 261.341804)"><g><path d="M -25.671875 43.859375 C -19.816406 45.816406 -14.019531 46.796875 -8.28125 46.796875 C -2.539062 46.796875 3.46875 45.601562 9.75 43.21875 C 16.03125 40.832031 21.769531 37.09375 26.96875 32 C 32.164062 26.914062 36.441406 19.28125 39.796875 9.09375 C 43.160156 -1.082031 44.84375 -13.101562 44.84375 -26.96875 L 44.84375 -203.734375 C 44.625 -209.367188 42.507812 -214.1875 38.5 -218.1875 C 34.5 -222.195312 29.679688 -224.203125 24.046875 -224.203125 L 19.828125 -224.203125 L 19.828125 -227.453125 L 90.984375 -227.453125 L 90.984375 -224.203125 L 86.765625 -224.203125 C 81.128906 -224.203125 76.304688 -222.253906 72.296875 -218.359375 C 68.296875 -214.460938 66.1875 -209.585938 65.96875 -203.734375 L 65.96875 -26 C 65.96875 -11.269531 63.691406 1.617188 59.140625 12.671875 C 54.585938 23.722656 48.847656 32.0625 41.921875 37.6875 C 28.921875 47.875 14.515625 52.96875 -1.296875 52.96875 C -10.609375 52.96875 -19.164062 51.125 -26.96875 47.4375 Z M -25.671875 43.859375 "/></g></g></g></svg>